<svg width="114" height="114" viewBox="0 0 114 114" fill="none" xmlns="http://www.w3.org/2000/svg">
<g clip-path="url(#clip0_1618_4763)">
<path d="M1.51851 57.4413C4.00456 55.11 6.66435 52.9711 9.47485 51.0432L11.1275 49.8391L11.2809 49.6857L16.9118 46.4158L17.8443 45.8846L22.0232 43.9486C29.5333 40.5587 37.5342 38.3831 45.7269 37.5033C53.8932 36.6939 62.1349 37.1197 70.1743 38.7664L76.0648 40.2183L76.2537 40.2656L82.3921 42.414C82.7463 42.532 83.0768 42.6501 83.4191 42.78L88.5305 45.1527C89.1444 45.436 89.7582 45.7193 90.3603 46.038L96.8292 49.8627L96.9709 50.0044L100.524 52.6132C102.495 54.0047 104.358 55.5437 106.096 57.217L107.335 58.3385C107.562 58.5139 107.749 58.734 107.887 58.9851C108.024 59.2361 108.109 59.5128 108.135 59.7979C108.161 60.083 108.128 60.3704 108.038 60.6422C107.948 60.9141 107.803 61.1645 107.613 61.378C107.422 61.5915 107.189 61.7634 106.929 61.8831C106.669 62.0029 106.387 62.0678 106.101 62.0739C105.815 62.08 105.531 62.0271 105.266 61.9186C105.001 61.8101 104.761 61.6482 104.561 61.4431L103.227 60.2508C101.618 58.6937 99.8892 57.265 98.0569 55.9775L94.5273 53.3687L88.2472 49.662C87.8105 49.4378 87.2557 49.1899 86.6654 48.8829L81.6248 46.5574C81.5068 46.4394 81.1762 46.3922 80.9165 46.2977L74.849 44.1729L69.1355 42.8036C61.5391 41.2435 53.7505 40.8415 46.0338 41.6113C38.2995 42.44 30.7476 44.5004 23.664 47.7143L19.6268 49.5794L18.9776 49.969L13.394 53.1916L11.8122 54.3485C9.16496 56.1493 6.6626 58.1543 4.32801 60.3453C3.93666 60.7366 3.40588 60.9565 2.85243 60.9565C2.29898 60.9565 1.76819 60.7366 1.37684 60.3453C0.985493 59.9539 0.765644 59.4231 0.765644 58.8697C0.765644 58.3162 0.985493 57.7854 1.37684 57.3941L1.51851 57.4413Z" fill="#F1F1F1"/>
<path d="M99.5913 43.5118C99.7823 43.323 100.006 43.1709 100.252 43.0632C100.503 42.9551 100.773 42.8978 101.047 42.8945C101.32 42.8912 101.591 42.942 101.845 43.0441C102.098 43.1462 102.329 43.2974 102.524 43.4891C102.718 43.6808 102.873 43.9092 102.979 44.1611C104.042 46.6637 105.033 49.1898 105.978 51.716C106.922 54.2422 107.335 56.4025 107.878 58.6454L108.067 59.4245C108.147 59.7541 108.146 60.0983 108.063 60.4272C107.98 60.7561 107.818 61.0599 107.591 61.3122C107.365 61.5645 107.08 61.7577 106.762 61.8751C106.443 61.9926 106.101 62.0307 105.765 61.9861L104.88 61.8562C102.696 61.5611 100.63 61.266 98.5289 61.1243C96.4277 60.9827 93.807 61.1243 91.5169 61.1952C90.9628 61.214 90.4239 61.0118 90.0188 60.6333C89.6136 60.2547 89.3755 59.7307 89.3567 59.1766C89.3379 58.6224 89.54 58.0835 89.9186 57.6784C90.2972 57.2733 90.8211 57.0351 91.3753 57.0163C93.7362 57.0163 96.1916 56.9219 98.647 56.9927C100.193 57.0753 101.681 57.2406 103.192 57.4295C102.826 55.9775 102.424 54.5137 101.952 53.0972C101.067 50.7008 100.087 48.2337 99.0483 45.8019C98.8979 45.4099 98.8693 44.9816 98.9662 44.573C99.063 44.1644 99.2809 43.7946 99.5913 43.5118Z" fill="#F1F1F1"/>
</g>
<defs>
<clipPath id="clip0_1618_4763">
<rect width="83.3713" height="77.6952" fill="white" transform="translate(113.969 54.9387) rotate(135)"/>
</clipPath>
</defs>
</svg>
