<svg width="259" height="9" viewBox="0 0 259 9" fill="none" xmlns="http://www.w3.org/2000/svg">
<path d="M129.017 4.70829C174.626 4.52548 219.463 5.58978 250.793 8.35126C253.062 8.6183 256.56 7.37556 257.935 5.99672C259.311 4.61789 258.548 3.10948 256.566 2.9642C224.165 0.110988 176.704 -0.239013 128.762 0.844522L129.017 4.70829ZM0.898034 8.66569C35.4224 6.38877 82.6046 4.90073 129.017 4.70829L128.762 0.844522C82.0753 1.90479 34.9372 4.32624 0.796035 7.11911C0.0832954 7.16611 0.0226806 7.57061 0.0656532 7.95746C0.108626 8.34431 0.203034 8.71694 0.898389 8.67108L0.898034 8.66569Z" fill="#017EFA"/>
</svg>
