<?xml version="1.0" encoding="utf-8"?>
<!-- Generator: Adobe Illustrator 26.0.0, SVG Export Plug-In . SVG Version: 6.00 Build 0)  -->
<svg version="1.1" id="Layer_1" xmlns="http://www.w3.org/2000/svg" xmlns:xlink="http://www.w3.org/1999/xlink" x="0px" y="0px"
	 viewBox="0 0 191 89" style="enable-background:new 0 0 191 89;" xml:space="preserve">
<style type="text/css">
	.st0{fill:#21B685;}
	.st1{fill:#FFFFFF;}
	.st2{clip-path:url(#SVGID_00000080195781487900613980000015893419240409434019_);}
	.st3{fill:#23AD7A;}
	.st4{fill:#00532C;}
	.st5{font-family:'MyriadPro-Regular';}
	.st6{font-size:48px;}
</style>
<path class="st0" d="M173.1,53h-17.9v36h17.9V53z"/>
<path class="st0" d="M35.8,53H0v36h35.8V53z"/>
<path class="st0" d="M74.6,53H38.8v36h35.8V53z"/>
<path class="st0" d="M113.4,53H77.6v36h35.8V53z"/>
<path class="st0" d="M152.2,53h-35.8v36h35.8V53z"/>
<path class="st1" d="M17.9,77.3l5.5-1.4l2.3,7.1L17.9,77.3z M30.4,68.2h-9.6l-3-9.1l-3,9.1H5.4l7.7,5.6l-3,9.1l7.7-5.6l4.8-3.5
	L30.4,68.2z"/>
<path class="st1" d="M56.7,77.3l5.5-1.4l2.3,7.1L56.7,77.3z M69.2,68.2h-9.6l-3-9.1l-3,9.1h-9.6l7.7,5.6l-3,9.1l7.7-5.6l4.8-3.5
	L69.2,68.2z"/>
<path class="st1" d="M95.5,77.3l5.5-1.4l2.3,7.1L95.5,77.3z M108,68.2h-9.6l-3-9.1l-3,9.1H83l7.7,5.6l-3,9.1l7.7-5.6l4.8-3.5
	L108,68.2z"/>
<path class="st1" d="M134.3,77.3l5.5-1.4l2.3,7.1L134.3,77.3z M146.8,68.2h-9.6l-3-9.1l-3,9.1h-9.6l7.7,5.6l-3,9.1l7.7-5.6l4.8-3.5
	L146.8,68.2z"/>
<path class="st1" d="M173.1,77.3l5.5-1.4l2.3,7.1L173.1,77.3z M185.6,68.2H176l-3-9.1l-3,9.1h-9.6l7.7,5.6l-3,9.1l7.7-5.6l4.8-3.5
	L185.6,68.2z"/>
<g>
	<defs>
		<rect id="SVGID_1_" width="191" height="47"/>
	</defs>
	<clipPath id="SVGID_00000110452273124787059640000012166424136085291179_">
		<use xlink:href="#SVGID_1_"  style="overflow:visible;"/>
	</clipPath>
	<g style="clip-path:url(#SVGID_00000110452273124787059640000012166424136085291179_);">
		<path class="st3" d="M45.7,16.7l-17.5,0L22.9,0l-5.4,16.6L0,16.6l14.1,10.3L8.7,43.6l14.1-10.3L37,43.6l-5.4-16.6L45.7,16.7z"/>
		<path class="st4" d="M32.8,30.7l-1.2-3.8l-8.7,6.4L32.8,30.7z"/>
	</g>
</g>
<text transform="matrix(1 0 0 1 57.8236 41.5882)" class="st5 st6">Fiverr</text>
<rect x="49.5" y="-18.2" style="fill:none;" width="1.4" height="17.1"/>
<path class="st0" d="M190.1,53h-35.8v36h35.8V53z"/>
<path class="st1" d="M172.2,77.2l5.5-1.4l2.3,7.1L172.2,77.2z M184.7,68.1h-9.6l-3-9.1l-3,9.1h-9.6l7.7,5.6l-3,9.1l7.7-5.6l4.8-3.5
	L184.7,68.1z"/>
</svg>
