<?xml version="1.0" encoding="UTF-8"?> <svg xmlns="http://www.w3.org/2000/svg" width="191" height="76" viewBox="0 0 191 76" fill="none"><g clip-path="url(#clip0_98_88)"><path d="M0 12.1199H22.2473V3.88232L0 12.1199Z" fill="#FF9D28"></path><path d="M22.2473 3.88235V33L32.767 0L22.2473 3.88235Z" fill="#68C5ED"></path><path d="M22.2473 12.1199H13.8417L22.2473 32.9751V12.1199Z" fill="#044D80"></path><path d="M0 12.1199L16.006 17.4706L13.8417 12.1199H0Z" fill="#E54747"></path><path d="M50.9877 25.3099C50.8023 25.4792 50.5999 25.6293 50.3837 25.7579C50.0332 25.9751 49.6624 26.1585 49.2763 26.3054C48.7307 26.5155 48.1661 26.6738 47.5902 26.7783C46.8432 26.9153 46.0848 26.9819 45.3252 26.9774C43.8616 27.0018 42.4075 26.7396 41.0468 26.2059C39.8925 25.7239 38.8735 24.9725 38.0772 24.0158C37.2771 23.0441 36.6939 21.9161 36.3658 20.7059C35.9803 19.337 35.7938 17.9208 35.8122 16.5C35.7991 15.0678 36.0027 13.6418 36.4162 12.2692C36.7752 11.0411 37.3831 9.89796 38.203 8.90948C39.0033 7.95085 40.0207 7.19206 41.1727 6.69455C42.5015 6.14001 43.9335 5.86865 45.3755 5.89817C46.0934 5.89559 46.8099 5.96226 47.5147 6.09726C48.089 6.21947 48.6528 6.38589 49.2008 6.595C49.6127 6.75813 50.0086 6.95806 50.3837 7.19229C50.6321 7.34785 50.8678 7.52259 51.0883 7.71491C51.28 7.87688 51.4418 8.07057 51.5665 8.28731C51.6945 8.50708 51.7638 8.75545 51.7678 9.00903C51.7534 9.44558 51.5943 9.86533 51.3148 10.2036C51.0135 10.6057 50.6767 10.9805 50.3082 11.3235C50.0565 11.0746 49.7797 10.8258 49.4777 10.5769C49.1576 10.319 48.8119 10.0938 48.4458 9.90496C48.038 9.69874 47.6072 9.54006 47.1623 9.43211C46.6365 9.29695 46.095 9.23001 45.5517 9.23301C44.6973 9.19159 43.8474 9.37755 43.0905 9.7715C42.3335 10.1655 41.6973 10.753 41.2482 11.4728C40.8097 12.1671 40.5027 12.9345 40.3422 13.7375C40.1605 14.597 40.0677 15.4726 40.0653 16.3507C40.0664 17.2617 40.1591 18.1704 40.3422 19.0633C40.5039 19.8818 40.829 20.6602 41.2985 21.3529C41.7449 22.0185 42.3499 22.5655 43.0602 22.9457C43.8913 23.3694 44.8185 23.575 45.753 23.543C46.2797 23.5445 46.8043 23.4776 47.3133 23.3439C47.7501 23.2136 48.1719 23.0385 48.5717 22.8212C48.9053 22.6371 49.2249 22.4291 49.528 22.1991C49.8048 21.9751 50.0313 21.776 50.2075 21.6267C50.3333 21.776 50.4592 21.9502 50.6353 22.1493C50.8027 22.3446 50.9542 22.5526 51.0883 22.7715C51.2393 22.9955 51.34 23.2194 51.4658 23.4434C51.5576 23.63 51.609 23.8334 51.6168 24.0407C51.6234 24.2736 51.5715 24.5044 51.4658 24.7127C51.3257 24.9261 51.1656 25.1261 50.9877 25.3099ZM66.6917 22.9955C66.6917 24.5882 66.9182 25.7579 67.3963 26.4796C67.0652 26.6181 66.7189 26.7183 66.3645 26.7783C66.0321 26.8373 65.6955 26.8706 65.3578 26.8778C64.7729 26.9132 64.1917 26.7651 63.6968 26.4547C63.3045 26.1557 63.0433 25.7192 62.967 25.2353C62.4604 25.7502 61.8522 26.1568 61.1802 26.4298C60.3257 26.7713 59.4085 26.9324 58.4873 26.9027C57.926 26.9016 57.3674 26.8263 56.8263 26.6787C56.2777 26.5319 55.7643 26.278 55.3163 25.9321C54.8503 25.5616 54.4723 25.0943 54.209 24.5633C53.9101 23.9069 53.7639 23.1925 53.7812 22.4728C53.742 21.5751 54.0078 20.6903 54.5362 19.9593C55.0392 19.3167 55.685 18.7972 56.4237 18.4412C57.1957 18.0693 58.0178 17.8094 58.8648 17.6697C59.6649 17.5377 60.4713 17.4463 61.2808 17.3959C61.5235 17.3752 61.7671 17.3669 62.0107 17.371H62.665V16.8235C62.665 16.052 62.4637 15.5045 62.0358 15.1561C61.608 14.8077 60.9285 14.6584 59.9973 14.6584C59.1968 14.6477 58.4018 14.7914 57.6568 15.0814C56.9643 15.3595 56.2916 15.6837 55.6435 16.052C55.3552 15.7097 55.1257 15.323 54.964 14.9072C54.8249 14.6177 54.7396 14.3058 54.7123 13.9864C54.7255 13.823 54.7752 13.6646 54.8579 13.5225C54.9406 13.3805 55.0542 13.2584 55.1905 13.1651C55.5862 12.8589 56.0277 12.6154 56.4992 12.4434C57.1194 12.2123 57.7596 12.0374 58.4118 11.9208C59.1594 11.7884 59.9174 11.7218 60.6768 11.7217C61.6188 11.6974 62.5595 11.8064 63.4703 12.0452C64.1633 12.2367 64.8011 12.5861 65.3327 13.0656C65.8233 13.5481 66.1789 14.1484 66.3645 14.8077C66.578 15.6031 66.6796 16.4238 66.6665 17.2466L66.6917 22.9955ZM62.7657 19.4864H62.3378C62.1948 19.4823 62.0516 19.4906 61.91 19.5113C61.4067 19.5611 60.9033 19.6108 60.4 19.6855C59.9344 19.7509 59.4834 19.8939 59.0662 20.1086C58.6939 20.304 58.3679 20.5754 58.1098 20.905C57.8468 21.2663 57.7139 21.7044 57.7323 22.1493C57.7127 22.6714 57.8823 23.1833 58.2105 23.5927C58.5461 23.9909 59.0997 24.19 59.8715 24.19C60.2458 24.191 60.6185 24.1408 60.9788 24.0407C61.3073 23.9538 61.621 23.8196 61.91 23.6425C62.1448 23.5002 62.3569 23.3241 62.5392 23.1199C62.6685 22.9737 62.7478 22.7907 62.7657 22.5973V19.4864ZM74.3172 13.5136C74.7602 13.0427 75.2789 12.6474 75.8523 12.3439C76.6562 11.92 77.5592 11.7139 78.4697 11.7466C79.2078 11.743 79.9407 11.8694 80.634 12.1199C81.3242 12.3842 81.9441 12.8014 82.446 13.3393C83.0225 13.9885 83.4516 14.7522 83.7043 15.5792C84.0552 16.6898 84.2168 17.8505 84.1825 19.0136C84.1825 20.5814 84.0063 21.9004 83.6288 22.9208C83.2513 23.9412 82.7983 24.7624 82.2195 25.3348C81.6825 25.9016 81.0189 26.3363 80.2817 26.6041C79.5954 26.8483 78.8719 26.9745 78.1425 26.9774C77.6239 26.9824 77.1071 26.9154 76.6073 26.7783C76.2216 26.6727 75.8499 26.5224 75.5 26.3303C75.246 26.2025 75.0093 26.0436 74.7953 25.8574C74.6853 25.7585 74.5842 25.6503 74.4933 25.5339V33H70.3157V12.1945C70.4389 12.1624 70.5657 12.1457 70.6932 12.1448C70.819 12.1199 70.97 12.1199 71.121 12.095C71.272 12.0701 71.4733 12.0701 71.6998 12.0701C72.2958 12.0495 72.8889 12.16 73.4363 12.3936C73.6599 12.5014 73.8555 12.6584 74.0082 12.8525C74.1609 13.0466 74.2666 13.2728 74.3172 13.5136ZM79.8538 19.1131C79.8569 18.5456 79.8064 17.979 79.7028 17.4208C79.6121 16.9403 79.442 16.4779 79.1995 16.052C78.9656 15.6757 78.6358 15.3667 78.2432 15.1561C77.7934 14.9244 77.2903 14.8129 76.7835 14.8326C75.9278 14.8326 75.3238 15.0068 74.9967 15.3054C74.8436 15.4406 74.7201 15.6052 74.6336 15.7892C74.547 15.9732 74.4993 16.1727 74.4933 16.3755V22.8212C74.7537 23.0579 75.0512 23.2512 75.3742 23.3936C75.8259 23.6199 76.3276 23.7311 76.8338 23.7172C77.8657 23.7172 78.6207 23.319 79.124 22.4977C79.6273 21.6765 79.8538 20.5814 79.8538 19.1131ZM87.4038 24.3393C87.2586 23.9293 87.1656 23.5029 87.127 23.0701C87.0851 22.6234 87.0683 22.1748 87.0767 21.7262V7.66514C87.226 7.63626 87.3776 7.61961 87.5297 7.61536C87.6807 7.59048 87.8317 7.59048 87.9827 7.56559C88.1337 7.54071 88.3098 7.54071 88.4608 7.54071C88.7908 7.53683 89.1201 7.57023 89.4423 7.64025C89.764 7.68589 90.0679 7.81466 90.3232 8.01356C90.6037 8.20141 90.8293 8.45889 90.9775 8.76016C91.1508 9.1435 91.2367 9.5598 91.2292 9.97962V12.1448H95.5327V15.2059H91.2543V21.6764C91.2543 23.095 91.8332 23.7918 92.9908 23.7918C93.2639 23.7889 93.5352 23.747 93.7962 23.6674C94.0478 23.5679 94.2743 23.4683 94.4757 23.3688C94.6648 23.2731 94.8421 23.1561 95.0042 23.0203C95.1552 22.8959 95.2558 22.7964 95.3313 22.7466C95.5934 23.1112 95.8289 23.4937 96.036 23.8914C96.1862 24.1767 96.2721 24.4909 96.2877 24.8122C96.2838 25.1016 96.1665 25.3781 95.9605 25.5837C95.7016 25.8661 95.395 26.1019 95.0545 26.2805C94.6151 26.5262 94.1396 26.7026 93.6452 26.8031C93.0506 26.9363 92.4428 27.0031 91.8332 27.0022C90.5748 27.0022 89.5682 26.7534 88.8635 26.2805C88.2061 25.7781 87.7012 25.1065 87.4038 24.3393ZM106.103 23.9412C106.562 23.9511 107.02 23.8924 107.462 23.7669C107.825 23.6645 108.179 23.5313 108.519 23.3688C108.804 23.2208 109.073 23.0458 109.324 22.8461C109.551 22.647 109.752 22.4728 109.928 22.3235C110.22 22.6919 110.48 23.0831 110.708 23.4932C110.94 23.8434 111.078 24.2457 111.111 24.6629C111.111 25.1108 110.859 25.509 110.356 25.8823C109.797 26.2658 109.175 26.552 108.519 26.7285C107.617 26.972 106.685 27.0892 105.75 27.0769C104.79 27.0769 103.834 26.9514 102.907 26.7036C101.95 26.4645 101.066 26.0033 100.326 25.3584C99.5865 24.7135 99.013 23.9034 98.6533 22.9955C98.2003 21.9751 97.9738 20.681 97.9738 19.138C97.9464 18.0137 98.1519 16.8957 98.5778 15.8529C98.9384 14.9884 99.4786 14.2084 100.163 13.5633C100.817 12.9664 101.588 12.5089 102.428 12.2194C103.255 11.9421 104.122 11.7992 104.995 11.7964C105.994 11.7711 106.988 11.949 107.915 12.319C108.665 12.6333 109.329 13.1195 109.853 13.7375C110.354 14.3352 110.723 15.0305 110.935 15.7783C111.159 16.5634 111.27 17.3763 111.262 18.1923V18.6154C111.265 18.7899 111.257 18.9646 111.237 19.138C111.237 19.3122 111.212 19.4864 111.212 19.6606C111.212 19.7949 111.195 19.9288 111.161 20.0588H102.126C102.164 21.0766 102.535 22.0547 103.183 22.8461C103.787 23.5679 104.769 23.9412 106.103 23.9412ZM107.512 17.7941C107.546 16.968 107.345 16.1491 106.933 15.4298C106.556 14.8326 105.876 14.509 104.895 14.509C104.514 14.4942 104.136 14.5649 103.787 14.7158C103.438 14.8666 103.128 15.0938 102.881 15.3801C102.378 15.9525 102.126 16.7488 102.126 17.7941H107.512ZM118.535 13.5882C118.683 13.3806 118.843 13.1812 119.013 12.9909C119.231 12.7536 119.486 12.552 119.768 12.3936C120.081 12.2147 120.409 12.0647 120.75 11.9457C121.122 11.8216 121.514 11.7626 121.907 11.7715C122.159 11.7715 122.411 11.7964 122.688 11.8212C122.947 11.8659 123.201 11.9411 123.443 12.0452C123.671 12.1431 123.87 12.2973 124.021 12.4932C124.174 12.6936 124.254 12.9391 124.248 13.19C124.236 13.7118 124.125 14.2268 123.921 14.7081C123.728 15.2122 123.501 15.7027 123.241 16.1764C122.923 15.9226 122.577 15.7055 122.209 15.5294C121.818 15.372 121.398 15.2958 120.976 15.3054C120.397 15.2838 119.831 15.4793 119.391 15.8529C119.189 16.0103 119.025 16.2105 118.912 16.4388C118.798 16.6671 118.739 16.9176 118.736 17.1719V26.9774H114.559V12.1697C114.682 12.1375 114.809 12.1208 114.936 12.1199C115.062 12.095 115.213 12.095 115.364 12.0701C115.515 12.0452 115.716 12.0452 115.943 12.0452C116.535 12.0305 117.123 12.1586 117.654 12.4185C117.875 12.5426 118.067 12.7107 118.219 12.912C118.37 13.1133 118.478 13.3436 118.535 13.5882ZM130.389 13.5882C130.537 13.3806 130.696 13.1812 130.867 12.9909C131.085 12.7536 131.34 12.552 131.622 12.3936C131.934 12.2147 132.263 12.0647 132.603 11.9457C132.976 11.8216 133.368 11.7626 133.761 11.7715C134.013 11.7715 134.264 11.7964 134.541 11.8212C134.801 11.8659 135.054 11.9411 135.296 12.0452C135.525 12.1431 135.724 12.2973 135.875 12.4932C136.028 12.6936 136.107 12.9391 136.101 13.19C136.089 13.7118 135.978 14.2268 135.774 14.7081C135.581 15.2122 135.354 15.7027 135.095 16.1764C134.777 15.9226 134.431 15.7055 134.063 15.5294C133.672 15.372 133.252 15.2958 132.83 15.3054C132.25 15.2838 131.684 15.4793 131.244 15.8529C131.042 16.0103 130.878 16.2105 130.765 16.4388C130.652 16.6671 130.592 16.9176 130.59 17.1719V26.9774H126.412V12.1697C126.535 12.1375 126.662 12.1208 126.79 12.1199C126.916 12.095 127.067 12.095 127.218 12.0701C127.369 12.0452 127.57 12.0452 127.796 12.0452C128.389 12.0305 128.976 12.1586 129.508 12.4185C129.728 12.5426 129.921 12.7107 130.072 12.912C130.224 13.1133 130.332 13.3436 130.389 13.5882ZM150.295 22.9955C150.295 24.5882 150.522 25.7579 151 26.4796C150.669 26.6181 150.323 26.7183 149.968 26.7783C149.636 26.8373 149.299 26.8706 148.962 26.8778C148.377 26.9132 147.795 26.7651 147.301 26.4547C146.908 26.1557 146.647 25.7192 146.571 25.2353C146.064 25.7502 145.456 26.1568 144.784 26.4298C143.929 26.7713 143.012 26.9324 142.091 26.9027C141.53 26.9016 140.971 26.8263 140.43 26.6787C139.881 26.5319 139.368 26.278 138.92 25.9321C138.454 25.5616 138.076 25.0943 137.813 24.5633C137.514 23.9069 137.368 23.1925 137.385 22.4728C137.346 21.5751 137.611 20.6903 138.14 19.9593C138.643 19.3167 139.289 18.7972 140.027 18.4412C140.799 18.0693 141.622 17.8094 142.469 17.6697C143.269 17.5377 144.075 17.4463 144.885 17.3959C145.127 17.3752 145.371 17.3669 145.614 17.371H146.269V16.8235C146.269 16.052 146.067 15.5045 145.64 15.1561C145.212 14.8077 144.532 14.6584 143.601 14.6584C142.8 14.6477 142.005 14.7914 141.261 15.0814C140.568 15.3595 139.895 15.6837 139.247 16.052C138.959 15.7097 138.729 15.323 138.568 14.9072C138.429 14.6177 138.343 14.3058 138.316 13.9864C138.329 13.823 138.379 13.6646 138.462 13.5225C138.544 13.3805 138.658 13.2584 138.794 13.1651C139.19 12.8589 139.631 12.6154 140.103 12.4434C140.723 12.2123 141.363 12.0374 142.016 11.9208C142.763 11.7884 143.521 11.7218 144.281 11.7217C145.223 11.6974 146.163 11.8064 147.074 12.0452C147.767 12.2367 148.405 12.5861 148.936 13.0656C149.427 13.5481 149.783 14.1484 149.968 14.8077C150.182 15.6031 150.283 16.4238 150.27 17.2466L150.295 22.9955ZM146.369 19.4864H145.942C145.798 19.4823 145.655 19.4906 145.514 19.5113C145.01 19.5611 144.507 19.6108 144.004 19.6855C143.538 19.7509 143.087 19.8939 142.67 20.1086C142.298 20.304 141.972 20.5754 141.714 20.905C141.451 21.2663 141.318 21.7044 141.336 22.1493C141.316 22.6714 141.486 23.1833 141.814 23.5927C142.15 23.9909 142.703 24.19 143.475 24.19C143.849 24.191 144.222 24.1408 144.583 24.0407C144.911 23.9538 145.225 23.8196 145.514 23.6425C145.749 23.5002 145.961 23.3241 146.143 23.1199C146.272 22.9737 146.351 22.7907 146.369 22.5973V19.4864Z" fill="#044D80"></path></g><path d="M19.5308 69.4725L9.31437 76L12.2571 64.0944L3 56.2227L15.0359 55.3924L19.5308 44L24.0263 55.3924L36.0622 56.2227L26.8051 64.0944L29.7479 76L19.5308 69.4725Z" fill="#DCB63E"></path><path d="M58.0152 69.4725L47.7987 76L50.7415 64.0944L41.4844 56.2227L53.5203 55.3924L58.0152 44L62.5107 55.3924L74.5466 56.2227L65.2888 64.0944L68.2322 76L58.0152 69.4725Z" fill="#DCB63E"></path><path d="M96.5 69.4725L86.2836 76L89.2264 64.0944L79.9692 56.2227L92.0046 55.3924L96.5 44L100.996 55.3924L113.031 56.2227L103.774 64.0944L106.717 76L96.5 69.4725Z" fill="#DCB63E"></path><path d="M134.985 69.4725L124.767 76L127.711 64.0944L118.453 56.2227L130.489 55.3924L134.985 44L139.48 55.3924L151.515 56.2227L142.258 64.0944L145.201 76L134.985 69.4725Z" fill="#DCB63E"></path><path d="M173.531 69.4725L163.314 76L166.258 64.0944L157 56.2227L169.036 55.3924L173.531 44L178.027 55.3924L190.062 56.2227L180.805 64.0944L183.748 76L173.531 69.4725Z" fill="#DCB63E"></path><mask id="mask0_98_88" style="mask-type:alpha" maskUnits="userSpaceOnUse" x="156" y="44" width="35" height="32"><path d="M173.469 69.4725L163.252 76L166.195 64.0944L156.938 56.2227L168.974 55.3924L173.469 44L177.964 55.3924L190 56.2227L180.743 64.0944L183.686 76L173.469 69.4725Z" fill="#DCB63E"></path></mask><g mask="url(#mask0_98_88)"><rect x="179" y="44" width="11" height="44" fill="#D9D9D9"></rect></g><defs><clipPath id="clip0_98_88"><rect width="151" height="33" fill="white"></rect></clipPath></defs></svg> 