<?xml version="1.0" encoding="UTF-8"?> <svg xmlns="http://www.w3.org/2000/svg" width="191" height="89" viewBox="0 0 191 89" fill="none"><path d="M191 53H173.094V89H191V53Z" fill="#DCDCE6"></path><path d="M173.094 53H155.188V89H173.094V53Z" fill="#21B685"></path><path d="M35.8125 53H0V89H35.8125V53Z" fill="#21B685"></path><path d="M74.6094 53H38.7969V89H74.6094V53Z" fill="#21B685"></path><path d="M113.406 53H77.5938V89H113.406V53Z" fill="#21B685"></path><path d="M152.203 53H116.391V89H152.203V53Z" fill="#21B685"></path><path d="M17.9062 77.255L23.3677 75.875L25.6507 82.925L17.9062 77.255ZM30.4406 68.165H20.8608L17.9062 59.075L14.9517 68.165H5.37187L13.1163 73.79L10.1618 82.88L17.9062 77.255L22.6962 73.79L30.4406 68.165Z" fill="white"></path><path d="M56.7031 77.255L62.1645 75.875L64.4476 82.94L56.7031 77.255ZM69.2375 68.165H59.6577L56.7031 59.075L53.7486 68.165H44.1687L51.9132 73.79L48.9587 82.88L56.7031 77.255L61.493 73.79L69.2375 68.165Z" fill="white"></path><path d="M95.5 77.255L100.961 75.875L103.244 82.94L95.5 77.255ZM108.034 68.165H98.4545L95.5 59.075L92.5455 68.165H82.9656L90.7101 73.79L87.7555 82.88L95.5 77.255L100.29 73.79L108.034 68.165Z" fill="white"></path><path d="M134.297 77.255L139.758 75.875L142.041 82.94L134.297 77.255ZM146.831 68.165H137.251L134.297 59.075L131.342 68.165H121.762L129.507 73.79L126.552 82.88L134.297 77.255L139.087 73.79L146.831 68.165Z" fill="white"></path><path d="M173.094 77.255L178.555 75.875L180.838 82.94L173.094 77.255ZM185.628 68.165H176.048L173.094 59.075L170.139 68.165H160.559L168.304 73.79L165.349 82.88L173.094 77.255L177.884 73.79L185.628 68.165Z" fill="white"></path><g clip-path="url(#clip0_98_104)"><path d="M50.2007 16.6532H69.5465V20.2717H61.9491V40.5958H57.7643V20.2717H50.2007V16.6532ZM68.7085 23.2584H72.2897V26.6117H72.3572C72.4802 26.1152 72.7009 25.6482 73.0063 25.2383C73.3423 24.7782 73.7394 24.3661 74.1865 24.0135C74.6453 23.6431 75.1567 23.3436 75.704 23.1249C76.2459 22.9037 76.8252 22.789 77.4103 22.7871C77.7175 22.7811 78.0248 22.7918 78.3309 22.8192C78.4995 22.8428 78.6681 22.8648 78.8502 22.8868V26.5762C78.5821 26.5306 78.309 26.4917 78.0291 26.458C77.7572 26.4246 77.4836 26.4076 77.2096 26.4073C76.5809 26.4037 75.9587 26.5356 75.3853 26.7941C74.8098 27.0564 74.3008 27.4456 73.8965 27.9327C73.4442 28.4819 73.1008 29.1126 72.8849 29.791C72.6265 30.6154 72.5024 31.4761 72.5173 32.3401V40.589H68.7085V23.2584ZM96.3599 40.5958H92.6101V38.1784H92.5427C92.0603 39.0634 91.3339 39.7905 90.4503 40.2731C89.5931 40.7799 88.618 41.052 87.6227 41.062C85.3466 41.062 83.701 40.4989 82.686 39.3727C81.671 38.2465 81.1651 36.542 81.1685 34.2592V23.2584H84.9773V33.8892C84.9773 35.4096 85.2673 36.4795 85.8473 37.0989C86.4273 37.7183 87.2417 38.0314 88.2904 38.0382C88.9788 38.0615 89.6642 37.9365 90.3002 37.6716C90.8064 37.4483 91.2533 37.1092 91.6052 36.6817C91.9526 36.244 92.1985 35.7345 92.3252 35.19C92.4741 34.5751 92.5471 33.9442 92.5427 33.3115V23.2584H96.3582L96.3599 40.5958ZM102.85 35.0295C102.962 36.1478 103.386 36.93 104.121 37.376C104.922 37.8425 105.838 38.0764 106.765 38.0517C107.173 38.0486 107.581 38.0209 107.987 37.9689C108.428 37.9172 108.861 37.8099 109.275 37.6496C109.657 37.5078 109.996 37.2712 110.261 36.9621C110.529 36.6261 110.655 36.1989 110.614 35.7711C110.61 35.5443 110.56 35.3206 110.468 35.1134C110.376 34.9062 110.243 34.7196 110.078 34.565C109.704 34.2287 109.265 33.9718 108.79 33.8098C108.205 33.6042 107.607 33.4416 106.999 33.3233C106.324 33.1904 105.644 33.0451 104.957 32.8875C104.261 32.7362 103.574 32.5461 102.898 32.3182C102.265 32.1074 101.667 31.8022 101.125 31.4127C100.599 31.0308 100.169 30.531 99.8703 29.9531C99.5378 29.2703 99.3769 28.5164 99.4015 27.757C99.3726 26.9155 99.6131 26.0868 100.088 25.392C100.548 24.7516 101.146 24.2233 101.838 23.8463C102.569 23.4448 103.36 23.1668 104.182 23.0236C104.993 22.8725 105.816 22.7945 106.641 22.7905C107.503 22.787 108.361 22.8822 109.201 23.0743C109.985 23.2522 110.732 23.5642 111.41 23.9966C112.07 24.4243 112.63 24.991 113.05 25.6572C113.508 26.4053 113.788 27.2484 113.87 28.1219H109.879C109.7 27.2041 109.282 26.5892 108.624 26.2772C107.915 25.954 107.144 25.7935 106.365 25.8076C106.046 25.8108 105.727 25.8333 105.411 25.8751C105.056 25.916 104.708 26.0005 104.374 26.1269C104.063 26.2405 103.782 26.4236 103.553 26.6624C103.323 26.9129 103.201 27.2446 103.215 27.5847C103.208 27.7989 103.247 28.0121 103.331 28.2092C103.415 28.4063 103.541 28.5824 103.701 28.725C104.075 29.0444 104.507 29.2893 104.972 29.4463C105.556 29.6521 106.155 29.8142 106.763 29.9312C107.437 30.0663 108.129 30.2122 108.838 30.3687C109.528 30.5242 110.21 30.7142 110.88 30.938C111.52 31.1463 112.124 31.4517 112.671 31.8435C113.195 32.225 113.629 32.7176 113.942 33.2861C114.285 33.9477 114.452 34.6865 114.428 35.4316C114.428 36.4598 114.193 37.3315 113.725 38.0466C113.258 38.7604 112.634 39.357 111.9 39.79C111.127 40.248 110.285 40.5766 109.407 40.763C108.516 40.9615 107.607 41.0629 106.695 41.0654C105.672 41.0749 104.652 40.9506 103.661 40.6955C102.793 40.478 101.976 40.0967 101.251 39.5721C100.578 39.0793 100.028 38.4368 99.6443 37.6953C99.2343 36.8669 99.0224 35.9542 99.0256 35.0295H102.85ZM115.433 23.2584H118.311V18.0621H122.126V23.2584H125.574V26.11H122.128V35.364C122.125 35.7116 122.142 36.059 122.178 36.4046C122.202 36.6643 122.282 36.9157 122.413 37.1412C122.542 37.3486 122.736 37.5076 122.964 37.5939C123.289 37.7088 123.632 37.7604 123.976 37.7459C124.244 37.7459 124.512 37.7459 124.778 37.729C125.05 37.717 125.319 37.6774 125.583 37.6108V40.562C125.158 40.6059 124.74 40.6515 124.343 40.6955C123.932 40.7413 123.519 40.7639 123.106 40.763C122.288 40.7868 121.47 40.6907 120.68 40.4775C120.134 40.3269 119.638 40.0357 119.24 39.6329C118.883 39.2421 118.639 38.7606 118.537 38.2409C118.405 37.6122 118.332 36.9725 118.319 36.3303V26.11H115.434L115.433 23.2584ZM128.247 23.2584H131.867V25.6065H131.934C132.416 24.6525 133.207 23.8903 134.176 23.4442C135.155 23.0043 136.217 22.7813 137.289 22.7905C138.516 22.7627 139.733 23.0085 140.853 23.5101C141.837 23.9658 142.702 24.6428 143.382 25.4883C144.068 26.3603 144.579 27.3566 144.888 28.4226C145.23 29.5876 145.401 30.7964 145.394 32.0107C145.395 33.1521 145.243 34.2885 144.942 35.3893C144.666 36.4323 144.2 37.4155 143.57 38.2899C142.956 39.128 142.16 39.8159 141.243 40.3019C140.308 40.8053 139.203 41.057 137.93 41.057C137.369 41.0567 136.809 41.0059 136.257 40.9049C135.704 40.8067 135.165 40.644 134.65 40.4201C134.14 40.1987 133.662 39.9107 133.227 39.5636C132.796 39.2224 132.428 38.8085 132.14 38.3406H132.072V46.9915H128.253L128.247 23.2584ZM141.566 31.9448C141.568 31.1746 141.467 30.4075 141.265 29.6643C141.082 28.9637 140.778 28.3005 140.368 27.7047C139.973 27.1415 139.459 26.6725 138.862 26.3313C138.228 25.9767 137.512 25.7971 136.787 25.811C135.18 25.811 133.97 26.3696 133.156 27.4867C132.343 28.6039 131.935 30.09 131.934 31.9448C131.927 32.766 132.035 33.5841 132.253 34.3758C132.438 35.0746 132.759 35.7297 133.199 36.3033C133.61 36.8298 134.127 37.2638 134.716 37.577C135.352 37.9015 136.059 38.0628 136.773 38.0466C137.544 38.0711 138.307 37.886 138.982 37.5111C139.575 37.1623 140.083 36.6871 140.472 36.1191C140.873 35.53 141.159 34.8703 141.315 34.1747C141.485 33.4436 141.572 32.6955 141.573 31.9448H141.566ZM148.294 16.6532H152.116V20.2717H148.301L148.294 16.6532ZM148.294 23.2584H152.116V40.5958H148.301L148.294 23.2584ZM155.519 16.6532H159.334V40.5958H155.525L155.519 16.6532ZM171.013 41.0654C169.749 41.0853 168.494 40.8503 167.323 40.3745C166.283 39.9465 165.347 39.3002 164.578 38.4791C163.815 37.6487 163.235 36.6676 162.873 35.5988C162.093 33.2134 162.093 30.6408 162.873 28.2554C163.235 27.1853 163.816 26.2029 164.579 25.3717C165.35 24.5537 166.285 23.9093 167.323 23.4814C169.704 22.5668 172.338 22.5668 174.719 23.4814C175.758 23.9112 176.693 24.5573 177.463 25.3768C178.227 26.2079 178.809 27.1902 179.171 28.2605C179.951 30.6459 179.951 33.2185 179.171 35.6039C178.809 36.6741 178.227 37.6564 177.463 38.4875C176.693 39.3052 175.758 39.9485 174.719 40.3745C173.545 40.8512 172.287 41.0861 171.02 41.0654H171.013ZM171.013 38.0466C171.784 38.0658 172.546 37.881 173.222 37.5111C173.835 37.1639 174.362 36.6822 174.763 36.1022C175.171 35.5056 175.472 34.8417 175.65 34.1409C176.028 32.6842 176.028 31.1548 175.65 29.6981C175.476 28.9952 175.175 28.3301 174.763 27.7351C174.359 27.1631 173.832 26.6883 173.222 26.3448C172.539 25.9917 171.782 25.8075 171.013 25.8075C170.245 25.8075 169.488 25.9917 168.805 26.3448C168.195 26.6882 167.669 27.1631 167.265 27.7351C166.853 28.3297 166.552 28.995 166.379 29.6981C165.999 31.1546 165.999 32.6844 166.379 34.1409C166.556 34.842 166.857 35.506 167.265 36.1022C167.666 36.6822 168.192 37.1638 168.805 37.5111C169.483 37.8822 170.248 38.0669 171.02 38.0466H171.013ZM180.853 23.2584H183.731V18.0621H187.547V23.2584H190.993V26.11H187.547V35.364C187.544 35.7116 187.561 36.059 187.598 36.4046C187.621 36.6643 187.701 36.9157 187.832 37.1412C187.961 37.349 188.155 37.5082 188.383 37.5939C188.708 37.7088 189.051 37.7604 189.395 37.7459C189.663 37.7459 189.929 37.7459 190.197 37.729C190.468 37.7171 190.737 37.6775 191 37.6108V40.562C190.577 40.6059 190.157 40.6515 189.762 40.6955C189.352 40.7413 188.938 40.7639 188.525 40.763C187.706 40.7866 186.888 40.6904 186.097 40.4775C185.552 40.3269 185.056 40.0357 184.659 39.6329C184.302 39.2421 184.059 38.7606 183.956 38.2409C183.824 37.6122 183.751 36.9725 183.738 36.3303V26.11H180.86L180.853 23.2584Z" fill="black"></path><path d="M45.7461 16.6532L28.2718 16.6498L22.8731 0L17.4743 16.6482L0 16.6448L14.1376 26.9394L8.73884 43.5927L22.8747 33.3014L37.0073 43.5927L31.6085 26.9445L45.7461 16.6532Z" fill="#23AD7A"></path><path d="M32.8326 30.7184L31.6085 26.9445L22.8748 33.3014L32.8326 30.7184Z" fill="#00532C"></path></g><defs><clipPath id="clip0_98_104"><rect width="191" height="47" fill="white"></rect></clipPath></defs></svg> 