<?xml version="1.0" encoding="utf-8"?>
<!-- Generator: Adobe Illustrator 26.0.0, SVG Export Plug-In . SVG Version: 6.00 Build 0)  -->
<svg version="1.1" id="Layer_1" xmlns="http://www.w3.org/2000/svg" xmlns:xlink="http://www.w3.org/1999/xlink" x="0px" y="0px"
	 viewBox="0 0 191 89" style="enable-background:new 0 0 191 89;" xml:space="preserve">
<style type="text/css">
	.st0{fill:#DCDCE6;}
	.st1{fill:#21B685;}
	.st2{fill:#FFFFFF;}
	.st3{clip-path:url(#SVGID_00000156584383123850858090000008232466098172886457_);}
	.st4{fill:#D3D5D6;}
	.st5{fill:#23AD7A;}
	.st6{fill:#00532C;}
</style>
<path class="st0" d="M191,53h-17.9v36H191V53z"/>
<path class="st1" d="M173.1,53h-17.9v36h17.9V53z"/>
<path class="st1" d="M35.8,53H0v36h35.8V53z"/>
<path class="st1" d="M74.6,53H38.8v36h35.8V53z"/>
<path class="st1" d="M113.4,53H77.6v36h35.8V53z"/>
<path class="st1" d="M152.2,53h-35.8v36h35.8V53z"/>
<path class="st2" d="M17.9,77.3l5.5-1.4l2.3,7.1L17.9,77.3z M30.4,68.2h-9.6l-3-9.1l-3,9.1H5.4l7.7,5.6l-3,9.1l7.7-5.6l4.8-3.5
	L30.4,68.2z"/>
<path class="st2" d="M56.7,77.3l5.5-1.4l2.3,7.1L56.7,77.3z M69.2,68.2h-9.6l-3-9.1l-3,9.1h-9.6l7.7,5.6l-3,9.1l7.7-5.6l4.8-3.5
	L69.2,68.2z"/>
<path class="st2" d="M95.5,77.3l5.5-1.4l2.3,7.1L95.5,77.3z M108,68.2h-9.6l-3-9.1l-3,9.1H83l7.7,5.6l-3,9.1l7.7-5.6l4.8-3.5
	L108,68.2z"/>
<path class="st2" d="M134.3,77.3l5.5-1.4l2.3,7.1L134.3,77.3z M146.8,68.2h-9.6l-3-9.1l-3,9.1h-9.6l7.7,5.6l-3,9.1l7.7-5.6l4.8-3.5
	L146.8,68.2z"/>
<path class="st2" d="M171.9,76l5.5-1.4l2.3,7.1L171.9,76z M184.4,66.9h-9.6l-3-9.1l-3,9.1h-9.6l7.7,5.6l-3,9.1l7.7-5.6l4.8-3.5
	L184.4,66.9z"/>
<g>
	<defs>
		<rect id="SVGID_1_" width="191" height="47"/>
	</defs>
	<clipPath id="SVGID_00000116193495103772784880000013367567619276978066_">
		<use xlink:href="#SVGID_1_"  style="overflow:visible;"/>
	</clipPath>
	<g style="clip-path:url(#SVGID_00000116193495103772784880000013367567619276978066_);">
		<path class="st4" d="M50.2,16.7h19.3v3.6h-7.6v20.3h-4.2V20.3h-7.6V16.7z M68.7,23.3h3.6v3.4h0.1c0.1-0.5,0.3-1,0.6-1.4
			c0.3-0.5,0.7-0.9,1.2-1.2c0.5-0.4,1-0.7,1.5-0.9c0.5-0.2,1.1-0.3,1.7-0.3c0.3,0,0.6,0,0.9,0c0.2,0,0.3,0,0.5,0.1v3.7
			c-0.3,0-0.5-0.1-0.8-0.1c-0.3,0-0.5-0.1-0.8-0.1c-0.6,0-1.3,0.1-1.8,0.4c-0.6,0.3-1.1,0.7-1.5,1.1c-0.5,0.5-0.8,1.2-1,1.9
			c-0.3,0.8-0.4,1.7-0.4,2.5v8.2h-3.8V23.3z M96.4,40.6h-3.7v-2.4h-0.1c-0.5,0.9-1.2,1.6-2.1,2.1c-0.9,0.5-1.8,0.8-2.8,0.8
			c-2.3,0-3.9-0.6-4.9-1.7s-1.5-2.8-1.5-5.1v-11H85v10.6c0,1.5,0.3,2.6,0.9,3.2c0.6,0.6,1.4,0.9,2.4,0.9c0.7,0,1.4-0.1,2-0.4
			c0.5-0.2,1-0.6,1.3-1c0.3-0.4,0.6-0.9,0.7-1.5c0.1-0.6,0.2-1.2,0.2-1.9V23.3h3.8L96.4,40.6z M102.8,35c0.1,1.1,0.5,1.9,1.3,2.3
			c0.8,0.5,1.7,0.7,2.6,0.7c0.4,0,0.8,0,1.2-0.1c0.4-0.1,0.9-0.2,1.3-0.3c0.4-0.1,0.7-0.4,1-0.7c0.3-0.3,0.4-0.8,0.4-1.2
			c0-0.2-0.1-0.5-0.1-0.7c-0.1-0.2-0.2-0.4-0.4-0.5c-0.4-0.3-0.8-0.6-1.3-0.8c-0.6-0.2-1.2-0.4-1.8-0.5c-0.7-0.1-1.4-0.3-2-0.4
			c-0.7-0.2-1.4-0.3-2.1-0.6c-0.6-0.2-1.2-0.5-1.8-0.9c-0.5-0.4-1-0.9-1.3-1.5c-0.3-0.7-0.5-1.4-0.5-2.2c0-0.8,0.2-1.7,0.7-2.4
			c0.5-0.6,1.1-1.2,1.8-1.5c0.7-0.4,1.5-0.7,2.3-0.8c0.8-0.2,1.6-0.2,2.5-0.2c0.9,0,1.7,0.1,2.6,0.3c0.8,0.2,1.5,0.5,2.2,0.9
			c0.7,0.4,1.2,1,1.6,1.7c0.5,0.7,0.7,1.6,0.8,2.5h-4c-0.2-0.9-0.6-1.5-1.3-1.8c-0.7-0.3-1.5-0.5-2.3-0.5c-0.3,0-0.6,0-1,0.1
			c-0.4,0-0.7,0.1-1,0.3c-0.3,0.1-0.6,0.3-0.8,0.5c-0.2,0.3-0.4,0.6-0.3,0.9c0,0.2,0,0.4,0.1,0.6s0.2,0.4,0.4,0.5
			c0.4,0.3,0.8,0.6,1.3,0.7c0.6,0.2,1.2,0.4,1.8,0.5c0.7,0.1,1.4,0.3,2.1,0.4c0.7,0.2,1.4,0.3,2,0.6c0.6,0.2,1.2,0.5,1.8,0.9
			c0.5,0.4,1,0.9,1.3,1.4c0.3,0.7,0.5,1.4,0.5,2.1c0,1-0.2,1.9-0.7,2.6c-0.5,0.7-1.1,1.3-1.8,1.7c-0.8,0.5-1.6,0.8-2.5,1
			c-0.9,0.2-1.8,0.3-2.7,0.3c-1,0-2-0.1-3-0.4c-0.9-0.2-1.7-0.6-2.4-1.1c-0.7-0.5-1.2-1.1-1.6-1.9C99.2,36.9,99,36,99,35H102.8z
			 M115.4,23.3h2.9v-5.2h3.8v5.2h3.4v2.9h-3.4v9.3c0,0.3,0,0.7,0.1,1c0,0.3,0.1,0.5,0.2,0.7c0.1,0.2,0.3,0.4,0.6,0.5
			c0.3,0.1,0.7,0.2,1,0.2c0.3,0,0.5,0,0.8,0c0.3,0,0.5-0.1,0.8-0.1v3c-0.4,0-0.8,0.1-1.2,0.1c-0.4,0-0.8,0.1-1.2,0.1
			c-0.8,0-1.6-0.1-2.4-0.3c-0.5-0.2-1-0.4-1.4-0.8c-0.4-0.4-0.6-0.9-0.7-1.4c-0.1-0.6-0.2-1.3-0.2-1.9V26.1h-2.9L115.4,23.3z
			 M128.2,23.3h3.6v2.3h0.1c0.5-1,1.3-1.7,2.2-2.2c1-0.4,2-0.7,3.1-0.7c1.2,0,2.4,0.2,3.6,0.7c1,0.5,1.8,1.1,2.5,2
			c0.7,0.9,1.2,1.9,1.5,2.9c0.3,1.2,0.5,2.4,0.5,3.6c0,1.1-0.2,2.3-0.5,3.4c-0.3,1-0.7,2-1.4,2.9c-0.6,0.8-1.4,1.5-2.3,2
			c-0.9,0.5-2,0.8-3.3,0.8c-0.6,0-1.1-0.1-1.7-0.2c-0.6-0.1-1.1-0.3-1.6-0.5c-0.5-0.2-1-0.5-1.4-0.9c-0.4-0.3-0.8-0.8-1.1-1.2h-0.1
			V47h-3.8L128.2,23.3z M141.6,31.9c0-0.8-0.1-1.5-0.3-2.3c-0.2-0.7-0.5-1.4-0.9-2c-0.4-0.6-0.9-1-1.5-1.4c-0.6-0.4-1.4-0.5-2.1-0.5
			c-1.6,0-2.8,0.6-3.6,1.7c-0.8,1.1-1.2,2.6-1.2,4.5c0,0.8,0.1,1.6,0.3,2.4c0.2,0.7,0.5,1.4,0.9,1.9c0.4,0.5,0.9,1,1.5,1.3
			c0.6,0.3,1.3,0.5,2.1,0.5c0.8,0,1.5-0.2,2.2-0.5c0.6-0.3,1.1-0.8,1.5-1.4c0.4-0.6,0.7-1.2,0.8-1.9
			C141.5,33.4,141.6,32.7,141.6,31.9L141.6,31.9z M148.3,16.7h3.8v3.6h-3.8L148.3,16.7z M148.3,23.3h3.8v17.3h-3.8L148.3,23.3z
			 M155.5,16.7h3.8v23.9h-3.8L155.5,16.7z M171,41.1c-1.3,0-2.5-0.2-3.7-0.7c-1-0.4-2-1.1-2.7-1.9c-0.8-0.8-1.3-1.8-1.7-2.9
			c-0.8-2.4-0.8-5,0-7.3c0.4-1.1,0.9-2.1,1.7-2.9c0.8-0.8,1.7-1.5,2.7-1.9c2.4-0.9,5-0.9,7.4,0c1,0.4,2,1.1,2.7,1.9
			c0.8,0.8,1.3,1.8,1.7,2.9c0.8,2.4,0.8,5,0,7.3c-0.4,1.1-0.9,2.1-1.7,2.9c-0.8,0.8-1.7,1.5-2.7,1.9C173.5,40.9,172.3,41.1,171,41.1
			L171,41.1z M171,38c0.8,0,1.5-0.2,2.2-0.5c0.6-0.3,1.1-0.8,1.5-1.4c0.4-0.6,0.7-1.3,0.9-2c0.4-1.5,0.4-3,0-4.4
			c-0.2-0.7-0.5-1.4-0.9-2c-0.4-0.6-0.9-1-1.5-1.4c-0.7-0.4-1.4-0.5-2.2-0.5c-0.8,0-1.5,0.2-2.2,0.5c-0.6,0.3-1.1,0.8-1.5,1.4
			c-0.4,0.6-0.7,1.3-0.9,2c-0.4,1.5-0.4,3,0,4.4c0.2,0.7,0.5,1.4,0.9,2c0.4,0.6,0.9,1.1,1.5,1.4C169.5,37.9,170.2,38.1,171,38
			L171,38z M180.9,23.3h2.9v-5.2h3.8v5.2h3.4v2.9h-3.4v9.3c0,0.3,0,0.7,0.1,1c0,0.3,0.1,0.5,0.2,0.7c0.1,0.2,0.3,0.4,0.6,0.5
			c0.3,0.1,0.7,0.2,1,0.2c0.3,0,0.5,0,0.8,0c0.3,0,0.5-0.1,0.8-0.1v3c-0.4,0-0.8,0.1-1.2,0.1c-0.4,0-0.8,0.1-1.2,0.1
			c-0.8,0-1.6-0.1-2.4-0.3c-0.5-0.2-1-0.4-1.4-0.8c-0.4-0.4-0.6-0.9-0.7-1.4c-0.1-0.6-0.2-1.3-0.2-1.9V26.1h-2.9L180.9,23.3z"/>
		<path class="st5" d="M45.7,16.7l-17.5,0L22.9,0l-5.4,16.6L0,16.6l14.1,10.3L8.7,43.6l14.1-10.3L37,43.6l-5.4-16.6L45.7,16.7z"/>
		<path class="st6" d="M32.8,30.7l-1.2-3.8l-8.7,6.4L32.8,30.7z"/>
	</g>
</g>
<path class="st2" d="M171.9,76l5.5-1.4l2.3,7.1L171.9,76z M184.4,66.9h-9.6l-3-9.1l-3,9.1h-9.6l7.7,5.6l-3,9.1l7.7-5.6l4.8-3.5
	L184.4,66.9z"/>
</svg>
